<svg version="1.2" xmlns="http://www.w3.org/2000/svg" viewBox="0 0 200 100" width="200" height="100"><style>.a{fill:#ace9ca}.b{fill:#414042}.c{fill:#329696}.d{fill:#50e196}</style><path fill-rule="evenodd" class="a" d="m200 0v100h-200v-100z"/><path class="b" d="m74.5 42.8l-7.6 2.3-3.6-12.2 7.6-2.3z"/><path class="b" d="m67.4 42.1l-4.4 1.3-2.1-7 4.4-1.3z"/><path class="b" d="m158.2 23.2l-3.2 1-6.8-22.4 3.2-1z"/><path class="b" d="m155.4 19.7l-14.7 4.4-4.3-14.5 14.6-4.4z"/><path class="c" d="m140.6 28.1l-67.1 20.1-6.5-21.6 67.1-20.2z"/><path class="d" d="m105.6 35.9l-29.4 8.9-5.1-16.8 29.5-8.8z"/><path class="b" d="m143.4 31.2l-4.6 1.4-8.7-28.9 4.6-1.4z"/><path class="b" d="m136 19.7l-29.9 9-1.1-3.8 29.9-8.9z"/><path class="b" d="m108.1 35.2l-2.5 0.7-5-16.7 2.4-0.8z"/><path class="b" d="m38.4 73.9h9.4q-0.3 4.6-2.6 8.2-2.2 3.5-6.2 5.5-3.9 2-9.5 2-4.4 0-7.9-1.5-3.5-1.5-5.9-4.3-2.4-2.9-3.7-6.9-1.3-4.1-1.3-9.1v-3.1q0-5 1.3-9 1.3-4.1 3.8-6.9 2.5-2.9 5.9-4.4 3.6-1.5 7.8-1.5 5.7 0 9.6 2 4 2.1 6.1 5.7 2.2 3.6 2.6 8.3h-9.3q-0.2-2.8-1.2-4.7-0.9-1.9-2.8-2.9-1.8-1-5-1-2.3 0-4.1 0.9-1.7 0.8-2.9 2.6-1.2 1.8-1.8 4.5-0.5 2.7-0.5 6.3v3.2q0 3.6 0.5 6.3 0.5 2.6 1.6 4.5 1.1 1.8 2.9 2.7 1.8 0.9 4.3 0.9 2.9 0 4.8-0.9 1.9-0.9 2.9-2.8 1-1.8 1.2-4.6zm35.6 15.1l-0.5-8.1v-25.7h9v33.8zm0.5-15l2.6-0.1q0 3.4-0.8 6.3-0.7 2.9-2.3 5-1.6 2.1-4 3.3-2.3 1.1-5.5 1.1-2.5 0-4.6-0.7-2-0.7-3.6-2.2-1.4-1.5-2.3-3.9-0.8-2.4-0.8-5.8v-21.8h9v21.9q0 1.5 0.4 2.6 0.4 1 1 1.6 0.6 0.7 1.5 1 0.9 0.2 2 0.2 2.8 0 4.4-1.1 1.6-1.1 2.3-3.1 0.7-1.9 0.7-4.3zm15.5 15v-45.5h17q5.2 0 9 1.6 3.8 1.5 5.8 4.6 2 3 2 7.5 0 3.7-1.2 6.3-1.2 2.6-3.5 4.3-2.2 1.8-5.2 2.8l-3 1.6h-14.7l-0.1-7.3h11q2.4 0 4.1-0.9 1.6-0.9 2.4-2.4 0.9-1.6 0.9-3.7 0-2.2-0.9-3.7-0.8-1.7-2.4-2.5-1.7-0.9-4.2-0.9h-7.6v38.2zm35.5 0h-10l-10.4-20.3h9.9l10.5 19.9zm11.8-7.3h24.2v7.3h-24.2zm-6.3-38.2h9.4v45.5h-9.4zm6.3 18.5h21.1v7.1h-21.1zm0-18.5h24.2v7.3h-24.2zm26.8 11.7h9.6l5.6 10.3 5.7-10.3h9.6l-9.5 16.5 10 17.3h-9.7l-6.1-10.9-6 10.9h-9.7l10-17.3z"/><path class="c" d="m38.9 47.9l-3.2-0.1 2.6-1.9 23.3-7 0.6 2z"/></svg>