<svg version="1.2" xmlns="http://www.w3.org/2000/svg" viewBox="0 0 256 256" width="256" height="256"><style>.a{fill:#ace9ca}.b{fill:#414042}.c{fill:#329696}.d{fill:#50e196}</style><path fill-rule="evenodd" class="a" d="m256 0v256h-256v-256z"/><path class="b" d="m90.7 186.5l-12.8 13-20.7-20.6 12.8-13z"/><path class="b" d="m75.6 192.9l-7.4 7.5-12-11.8 7.5-7.5z"/><path class="b" d="m237.8 54.7l-5.3 5.5-38.4-37.7 5.3-5.5z"/><path class="b" d="m228.3 50.7l-24.8 25.1-24.6-24.5 24.6-25z"/><path class="c" d="m207.7 83.9l-113.1 114.6-36.9-36.4 113-114.7z"/><path class="d" d="m145.8 138.3l-49.5 50.3-28.8-28.2 49.8-50.3z"/><path class="b" d="m216.8 87.1l-7.7 7.9-49.4-48.7 7.7-7.9z"/><path class="b" d="m189.2 72.1l-50.3 51.1-6.5-6.4 50.5-51z"/><path class="b" d="m150.1 134.1l-4.3 4.2-28.5-28.2 3.9-4.2z"/><path class="c" d="m24.6 236l-6.6 3.4 3.1-6.7 39.3-39.8 3.4 3.3z"/></svg>